<svg xmlns="http://www.w3.org/2000/svg" width="357" height="357" fill="none" class="icon"><circle cx="178.5" cy="178.5" r="178.5" fill="#fff"/><path fill="#DADADA" d="M178.5 77c-12.757 0-25.227 3.724-35.834 10.702-10.607 6.977-18.874 16.894-23.756 28.498a62.589 62.589 0 0 0-3.671 36.688c2.489 12.318 8.632 23.633 17.653 32.513 9.02 8.881 20.513 14.929 33.025 17.379a65.446 65.446 0 0 0 37.266-3.614c11.786-4.806 21.859-12.945 28.947-23.387 7.087-10.443 10.87-22.72 10.87-35.279 0-16.841-6.796-32.993-18.892-44.901C212.012 83.69 195.606 77 178.5 77Z"/><path fill="#DADADA" d="M178.5 0A178.5 178.5 0 1 0 357 178.5 178.705 178.705 0 0 0 178.5 0Zm101.898 292.306A63.777 63.777 0 0 0 216.75 229.5h-76.5a63.771 63.771 0 0 0-63.648 62.806 152.995 152.995 0 0 1-41.047-168.658 153 153 0 1 1 244.856 168.658h-.013Z"/></svg>
