<svg width="34" height="34" viewBox="0 0 34 34" fill="none" xmlns="http://www.w3.org/2000/svg">
<path d="M14.1667 18.8889H0.944444C0.377778 18.8889 0 19.2667 0 19.8333V33.0556C0 33.6222 0.377778 34 0.944444 34H14.1667C14.7333 34 15.1111 33.6222 15.1111 33.0556V19.8333C15.1111 19.2667 14.7333 18.8889 14.1667 18.8889ZM13.2222 32.1111H1.88889V20.7778H13.2222V32.1111ZM14.1667 0H0.944444C0.377778 0 0 0.377778 0 0.944444V14.1667C0 14.7333 0.377778 15.1111 0.944444 15.1111H14.1667C14.7333 15.1111 15.1111 14.7333 15.1111 14.1667V0.944444C15.1111 0.377778 14.7333 0 14.1667 0ZM13.2222 13.2222H1.88889V1.88889H13.2222V13.2222ZM33.0556 0H19.8333C19.2667 0 18.8889 0.377778 18.8889 0.944444V14.1667C18.8889 14.7333 19.2667 15.1111 19.8333 15.1111H33.0556C33.6222 15.1111 34 14.7333 34 14.1667V0.944444C34 0.377778 33.6222 0 33.0556 0ZM32.1111 13.2222H20.7778V1.88889H32.1111V13.2222ZM33.0556 25.5H27.3889V19.8333C27.3889 19.2667 27.0111 18.8889 26.4444 18.8889C25.8778 18.8889 25.5 19.2667 25.5 19.8333V25.5H19.8333C19.2667 25.5 18.8889 25.8778 18.8889 26.4444C18.8889 27.0111 19.2667 27.3889 19.8333 27.3889H25.5V33.0556C25.5 33.6222 25.8778 34 26.4444 34C27.0111 34 27.3889 33.6222 27.3889 33.0556V27.3889H33.0556C33.6222 27.3889 34 27.0111 34 26.4444C34 25.8778 33.6222 25.5 33.0556 25.5Z" fill="#24293F"/>
</svg>
