<svg width="607" height="603" viewBox="0 0 607 603" fill="none" xmlns="http://www.w3.org/2000/svg">
<g clip-path="url(#clip0_4_35)">
<path d="M187.941 430.713C187.27 429.698 186.384 428.842 185.347 428.206C184.309 427.57 183.144 427.169 181.935 427.032C180.725 426.894 179.5 427.023 178.346 427.41C177.192 427.797 176.136 428.432 175.254 429.27L148.958 415.705L150.593 430.987L175.313 441.525C176.821 442.913 178.785 443.7 180.835 443.737C182.884 443.774 184.876 443.058 186.432 441.725C187.989 440.392 189.002 438.535 189.28 436.506C189.558 434.476 189.082 432.415 187.941 430.713Z" fill="#FFB8B8"/>
<path d="M164.572 436.865C164.096 437.083 163.579 437.198 163.056 437.204C162.532 437.209 162.014 437.105 161.533 436.897L136.556 426.068C128.016 422.367 121.111 415.691 117.127 407.283L103.996 379.581C103.027 378.337 102.313 376.914 101.895 375.394C101.477 373.874 101.363 372.286 101.559 370.722C101.755 369.157 102.258 367.647 103.039 366.277C103.819 364.907 104.863 363.704 106.109 362.737C107.355 361.771 108.779 361.059 110.3 360.642C111.822 360.226 113.411 360.113 114.976 360.311C116.541 360.509 118.051 361.013 119.421 361.794C120.791 362.576 121.994 363.619 122.96 364.865L146.041 407.665L167.354 423.756C167.964 424.218 168.417 424.857 168.652 425.585C168.887 426.314 168.893 427.097 168.668 427.829L166.576 434.581C166.352 435.306 165.911 435.944 165.314 436.412C165.086 436.591 164.836 436.743 164.572 436.865Z" fill="#24293F"/>
<path d="M103.418 347.003C114.651 347.003 123.757 337.902 123.757 326.675C123.757 315.449 114.651 306.348 103.418 306.348C92.1849 306.348 83.0787 315.449 83.0787 326.675C83.0787 337.902 92.1849 347.003 103.418 347.003Z" fill="#FFB8B8"/>
<path d="M111.656 593.335L121.808 593.334L126.638 554.197L111.654 554.198L111.656 593.335Z" fill="#FFB8B8"/>
<path d="M141.388 602.755L109.481 602.756L109.48 590.436L129.06 590.435C132.329 590.435 135.465 591.733 137.777 594.043C140.089 596.354 141.388 599.487 141.388 602.755Z" fill="#2F2E41"/>
<path d="M78.5316 593.335L88.6841 593.334L93.5136 554.197L78.5299 554.198L78.5316 593.335Z" fill="#FFB8B8"/>
<path d="M108.264 602.755L76.3567 602.756L76.3561 590.436L95.9357 590.435C99.2052 590.435 102.341 591.733 104.653 594.043C106.965 596.354 108.264 599.487 108.264 602.755Z" fill="#2F2E41"/>
<path d="M74.9868 582.132C74.637 581.733 74.3766 581.264 74.2231 580.756C74.0695 580.248 74.0264 579.713 74.0966 579.187L91.8715 445.951L136.033 453.446L140.746 450.62L128.559 577.035C128.457 577.889 128.064 578.681 127.447 579.279C126.829 579.876 126.023 580.243 125.167 580.316L111.795 581.43C111.263 581.474 110.728 581.404 110.226 581.224C109.724 581.044 109.266 580.758 108.884 580.386C108.502 580.014 108.204 579.564 108.011 579.067C107.818 578.57 107.734 578.037 107.765 577.505L111.227 517.301C111.233 517.199 111.201 517.098 111.137 517.018C111.073 516.938 110.981 516.885 110.88 516.868C110.779 516.852 110.675 516.873 110.589 516.929C110.503 516.984 110.44 517.07 110.414 517.169L93.2858 580.648C93.0716 581.438 92.6033 582.136 91.9532 582.634C91.303 583.132 90.507 583.402 89.6879 583.403H77.7906C77.2596 583.404 76.7347 583.29 76.2511 583.071C75.7676 582.852 75.3365 582.532 74.9868 582.132Z" fill="#2F2E41"/>
<path d="M105.571 455.277C105.064 454.818 104.412 454.551 103.729 454.523C103.046 454.494 102.374 454.706 101.831 455.121L93.0017 461.984C92.5213 462.359 91.9562 462.61 91.356 462.715C90.7558 462.82 90.139 462.777 89.5596 462.589C88.9801 462.4 88.4558 462.072 88.0327 461.634C87.6095 461.196 87.3005 460.661 87.1326 460.075C82.8019 444.917 72.9899 406.761 75.4071 379.906C76.7773 364.684 89.9297 353.115 104.726 354.085C114.842 354.759 121.497 360.591 124.506 371.419C131.895 398.005 140.015 446.77 141.568 456.277C141.69 457.014 141.587 457.771 141.271 458.449C140.956 459.127 140.442 459.693 139.799 460.074C135.621 462.581 130.848 463.923 125.976 463.962C120.081 463.962 113.012 461.911 105.571 455.277Z" fill="#24293F"/>
<path d="M108.902 464.734C109.001 463.521 108.833 462.301 108.409 461.161C107.985 460.02 107.316 458.986 106.449 458.132C105.583 457.278 104.539 456.624 103.392 456.216C102.245 455.809 101.022 455.657 99.8105 455.773L87.495 428.881L79.3452 441.914L92.2896 465.453C92.619 467.475 93.6791 469.306 95.2689 470.599C96.8587 471.891 98.8678 472.557 100.916 472.468C102.963 472.379 104.907 471.543 106.379 470.118C107.851 468.692 108.749 466.776 108.902 464.734Z" fill="#FFB8B8"/>
<path d="M86.7153 455.16C86.2062 455.038 85.7285 454.811 85.3131 454.492C84.8978 454.174 84.5542 453.772 84.3046 453.312L71.3372 429.386C66.9025 421.206 65.5917 411.695 67.6485 402.621L74.4212 372.725C74.4268 371.148 74.7434 369.587 75.3529 368.133C75.9624 366.679 76.8528 365.358 77.9732 364.248C79.0936 363.138 80.4219 362.259 81.8824 361.662C83.3428 361.066 84.9066 360.762 86.4843 360.77C88.0621 360.778 89.6228 361.096 91.0773 361.707C92.5319 362.318 93.8516 363.21 94.9611 364.331C96.0705 365.452 96.948 366.781 97.5432 368.241C98.1385 369.702 98.4398 371.265 98.4301 372.842L90.1644 420.755L96.9993 446.562C97.1936 447.302 97.1558 448.084 96.8909 448.802C96.626 449.52 96.1468 450.14 95.5182 450.577L89.7024 454.6C89.0785 455.031 88.3379 455.262 87.5794 455.262C87.2884 455.262 86.9983 455.228 86.7153 455.16Z" fill="#24293F"/>
<path opacity="0.2" d="M96.7797 393.048L89.3267 424.498L100.092 450.982L92.6391 425.326L96.7797 393.048Z" fill="black"/>
<path d="M101.084 347.015C93.6248 347.184 86.2536 342.548 82.889 335.571C81.2461 332.031 80.5661 328.121 80.9175 324.235C81.269 320.349 82.6394 316.624 84.8908 313.436C87.1385 310.398 90.2069 308.063 93.7358 306.706C97.2647 305.349 101.108 305.026 104.814 305.776C108.916 303.166 113.686 301.41 118.466 301.857C123.247 302.303 127.975 305.277 129.762 309.943C131.55 314.609 129.63 320.76 125.185 322.657C122.335 323.873 119.117 323.283 116.076 322.793C113.034 322.303 109.717 321.983 107.07 323.627C104.423 325.27 103.234 329.679 105.604 331.734C106.871 332.902 107.768 334.415 108.184 336.086C108.601 337.758 108.518 339.515 107.947 341.14C106.755 344.367 103.504 346.96 101.084 347.015Z" fill="#2F2E41"/>
<path d="M490.597 143.136H487.285V52.4734C487.285 45.5825 485.927 38.759 483.289 32.3927C480.65 26.0263 476.783 20.2417 471.907 15.3691C467.032 10.4965 461.244 6.63135 454.874 3.99431C448.504 1.35727 441.677 7.60812e-06 434.782 1.10474e-10H242.59C228.665 -2.85351e-05 215.311 5.52836 205.465 15.369C195.618 25.2096 190.087 38.5564 190.087 52.4732V549.858C190.087 563.775 195.618 577.121 205.464 586.962C215.311 596.803 228.665 602.331 242.59 602.331H434.782C448.706 602.331 462.061 596.803 471.907 586.962C481.753 577.122 487.285 563.775 487.285 549.858V207.672H490.596L490.597 143.136Z" fill="#E6E6E6"/>
<path d="M476.11 52.8395V549.492C476.11 559.885 471.979 569.853 464.625 577.202C457.272 584.552 447.299 588.68 436.899 588.681H243.786C233.386 588.68 223.413 584.552 216.06 577.202C208.706 569.853 204.575 559.885 204.575 549.492V52.8395C204.575 42.4462 208.706 32.4786 216.06 25.1294C223.413 17.7803 233.386 13.6514 243.786 13.6512H267.213C266.061 16.4784 265.623 19.545 265.936 22.5812C266.249 25.6174 267.304 28.5303 269.007 31.0635C270.711 33.5967 273.011 35.6727 275.706 37.1089C278.401 38.545 281.408 39.2973 284.462 39.2995H394.567C397.621 39.2972 400.627 38.5449 403.322 37.1088C406.017 35.6726 408.317 33.5967 410.021 31.0634C411.725 28.5302 412.78 25.6174 413.093 22.5812C413.406 19.545 412.967 16.4784 411.816 13.6512H436.899C447.299 13.6514 457.272 17.7803 464.625 25.1294C471.979 32.4786 476.11 42.4462 476.11 52.8395Z" fill="white"/>
<path d="M453.213 291.321C452.512 289.381 451.23 287.705 449.542 286.519C447.854 285.333 445.842 284.695 443.779 284.692H236.906C235.59 284.691 234.286 284.95 233.07 285.453C231.853 285.956 230.748 286.694 229.817 287.625C228.886 288.555 228.148 289.659 227.645 290.875C227.141 292.091 226.882 293.394 226.883 294.709V453.37C226.886 456.026 227.944 458.572 229.823 460.449C231.702 462.327 234.249 463.384 236.906 463.388H443.779C446.436 463.384 448.983 462.327 450.862 460.449C452.741 458.572 453.798 456.026 453.802 453.37V294.709C453.804 293.554 453.605 292.408 453.213 291.321Z" fill="#F2F2F2"/>
<path d="M453.213 92.025C452.512 90.0856 451.23 88.4088 449.542 87.2227C447.854 86.0366 445.842 85.3987 443.779 85.3956H236.906C235.59 85.3951 234.286 85.6539 233.07 86.1571C231.853 86.6604 230.748 87.3983 229.817 88.3286C228.886 89.259 228.148 90.3635 227.645 91.5792C227.141 92.7948 226.882 94.0977 226.883 95.4134V254.074C226.886 256.73 227.944 259.276 229.823 261.154C231.702 263.031 234.249 264.088 236.906 264.092H443.779C446.436 264.088 448.983 263.031 450.862 261.154C452.741 259.276 453.798 256.73 453.802 254.074V95.4134C453.804 94.2583 453.605 93.1117 453.213 92.025Z" fill="white"/>
<path d="M453.213 92.025C452.512 90.0856 451.23 88.4088 449.542 87.2227C447.854 86.0366 445.842 85.3987 443.779 85.3956H236.906C235.59 85.3951 234.286 85.6539 233.07 86.1571C231.853 86.6604 230.748 87.3983 229.817 88.3286C228.886 89.259 228.148 90.3635 227.645 91.5792C227.141 92.7948 226.882 94.0977 226.883 95.4134V254.074C226.886 256.73 227.944 259.276 229.823 261.154C231.702 263.031 234.249 264.088 236.906 264.092H443.779C446.436 264.088 448.983 263.031 450.862 261.154C452.741 259.276 453.798 256.73 453.802 254.074V95.4134C453.804 94.2583 453.605 93.1117 453.213 92.025ZM452.623 254.074C452.62 256.417 451.687 258.664 450.029 260.321C448.371 261.978 446.124 262.91 443.779 262.913H236.906C234.561 262.91 232.313 261.978 230.655 260.321C228.997 258.664 228.065 256.417 228.062 254.074V95.4134C228.065 93.07 228.997 90.8233 230.655 89.1663C232.313 87.5092 234.561 86.577 236.906 86.5742H443.779C446.123 86.577 448.371 87.5092 450.029 89.1663C451.687 90.8233 452.62 93.07 452.623 95.4134V254.074Z" fill="#3F3D56"/>
<path d="M437.847 106.745V217.533C437.847 217.899 437.775 218.261 437.635 218.6C437.495 218.938 437.29 219.246 437.031 219.505C436.772 219.764 436.464 219.969 436.126 220.109C435.787 220.25 435.425 220.322 435.058 220.322H246.88C246.746 220.323 246.612 220.313 246.48 220.291C245.816 220.195 245.209 219.864 244.77 219.357C244.331 218.851 244.089 218.203 244.089 217.533V106.745C244.089 106.379 244.161 106.016 244.301 105.678C244.441 105.339 244.646 105.032 244.905 104.773C245.164 104.514 245.472 104.309 245.81 104.168C246.149 104.028 246.511 103.956 246.878 103.956H435.056C435.423 103.956 435.786 104.028 436.124 104.168C436.463 104.308 436.77 104.513 437.029 104.772C437.289 105.031 437.494 105.338 437.635 105.676C437.775 106.014 437.847 106.377 437.847 106.743V106.745Z" fill="#E6E6E6"/>
<path d="M291.523 169.828C305.045 169.828 316.007 158.872 316.007 145.358C316.007 131.843 305.045 120.887 291.523 120.887C278.001 120.887 267.039 131.843 267.039 145.358C267.039 158.872 278.001 169.828 291.523 169.828Z" fill="#24293F"/>
<path d="M368.303 220.766H248.191C248.04 220.768 247.89 220.756 247.742 220.731L304.549 122.388C304.896 121.775 305.399 121.266 306.008 120.911C306.616 120.557 307.307 120.37 308.011 120.37C308.715 120.37 309.407 120.557 310.015 120.911C310.623 121.266 311.127 121.775 311.473 122.388L349.598 188.383L351.425 191.541L368.303 220.766Z" fill="#3F3D56"/>
<path opacity="0.2" d="M368.303 220.766H327.294L347.425 191.541L348.874 189.436L349.599 188.384L351.425 191.541L368.303 220.766Z" fill="black"/>
<path d="M435.181 220.766H331.293L351.425 191.541L352.874 189.436L379.106 151.35C380.826 148.854 384.964 148.699 386.986 150.88C387.121 151.028 387.248 151.186 387.363 151.35L435.181 220.766Z" fill="#3F3D56"/>
<path d="M399.73 300.588C399.029 298.648 397.747 296.972 396.06 295.785C394.372 294.599 392.359 293.961 390.296 293.958H183.423C182.107 293.958 180.803 294.217 179.587 294.72C178.371 295.223 177.265 295.961 176.335 296.891C175.404 297.822 174.665 298.926 174.162 300.142C173.658 301.358 173.399 302.66 173.4 303.976V462.637C173.404 465.293 174.461 467.838 176.34 469.716C178.219 471.594 180.766 472.651 183.423 472.655H390.296C392.953 472.651 395.501 471.594 397.38 469.716C399.259 467.838 400.316 465.293 400.32 462.637V303.976C400.321 302.821 400.122 301.674 399.73 300.588Z" fill="white"/>
<path d="M399.73 300.588C399.029 298.648 397.747 296.972 396.06 295.785C394.372 294.599 392.359 293.961 390.296 293.958H183.423C182.107 293.958 180.803 294.217 179.587 294.72C178.371 295.223 177.265 295.961 176.335 296.891C175.404 297.822 174.665 298.926 174.162 300.142C173.658 301.358 173.399 302.66 173.4 303.976V462.637C173.404 465.293 174.461 467.838 176.34 469.716C178.219 471.594 180.766 472.651 183.423 472.655H390.296C392.953 472.651 395.501 471.594 397.38 469.716C399.259 467.838 400.316 465.293 400.32 462.637V303.976C400.321 302.821 400.122 301.674 399.73 300.588ZM399.14 462.637C399.137 464.98 398.205 467.227 396.547 468.884C394.889 470.541 392.641 471.473 390.296 471.476H183.423C181.079 471.473 178.831 470.541 177.173 468.884C175.515 467.227 174.582 464.98 174.579 462.637V303.976C174.582 301.633 175.515 299.386 177.173 297.729C178.831 296.072 181.079 295.14 183.423 295.137H390.296C392.641 295.14 394.889 296.072 396.547 297.729C398.205 299.386 399.137 301.633 399.14 303.976L399.14 462.637Z" fill="#3F3D56"/>
<path d="M384.365 315.308V426.096C384.365 426.462 384.293 426.824 384.153 427.163C384.012 427.501 383.807 427.808 383.548 428.067C383.289 428.326 382.982 428.532 382.643 428.672C382.305 428.812 381.942 428.885 381.576 428.885H193.397C193.263 428.886 193.129 428.875 192.997 428.854C192.333 428.758 191.726 428.427 191.287 427.92C190.848 427.414 190.606 426.766 190.606 426.096V315.308C190.606 314.942 190.678 314.579 190.818 314.241C190.958 313.902 191.164 313.595 191.423 313.336C191.682 313.077 191.989 312.871 192.327 312.731C192.666 312.591 193.029 312.519 193.395 312.519H381.574C381.94 312.518 382.303 312.59 382.641 312.73C382.98 312.87 383.288 313.076 383.547 313.335C383.806 313.593 384.012 313.901 384.152 314.239C384.292 314.577 384.364 314.94 384.365 315.306V315.308Z" fill="#E6E6E6"/>
<path d="M238.04 378.391C251.563 378.391 262.525 367.435 262.525 353.921C262.525 340.406 251.563 329.45 238.04 329.45C224.518 329.45 213.556 340.406 213.556 353.921C213.556 367.435 224.518 378.391 238.04 378.391Z" fill="#24293F"/>
<path d="M314.82 429.329H194.708C194.557 429.331 194.407 429.319 194.259 429.293L251.067 330.951C251.413 330.338 251.917 329.829 252.525 329.474C253.133 329.12 253.825 328.933 254.529 328.933C255.233 328.933 255.924 329.12 256.532 329.474C257.141 329.829 257.644 330.338 257.99 330.951L296.116 396.946L297.942 400.104L314.82 429.329Z" fill="#3F3D56"/>
<path opacity="0.2" d="M314.82 429.329H273.811L293.942 400.104L295.391 397.999L296.116 396.946L297.943 400.104L314.82 429.329Z" fill="black"/>
<path d="M381.698 429.329H277.811L297.942 400.104L299.391 397.999L325.624 359.913C327.344 357.417 331.481 357.262 333.503 359.442C333.639 359.591 333.765 359.748 333.881 359.913L381.698 429.329Z" fill="#3F3D56"/>
<path d="M307.096 532.651H247.472C243.409 532.651 239.512 531.038 236.639 528.167C233.766 525.296 232.152 521.401 232.152 517.34C232.152 513.28 233.766 509.385 236.639 506.514C239.512 503.642 243.409 502.029 247.472 502.029H307.096C311.159 502.029 315.055 503.642 317.928 506.514C320.801 509.385 322.415 513.28 322.415 517.34C322.415 521.401 320.801 525.296 317.928 528.167C315.055 531.038 311.159 532.651 307.096 532.651Z" fill="#24293F"/>
<path d="M425.581 532.651H365.957C361.894 532.651 357.997 531.038 355.124 528.167C352.251 525.296 350.637 521.401 350.637 517.34C350.637 513.28 352.251 509.385 355.124 506.514C357.997 503.642 361.894 502.029 365.957 502.029H425.581C429.644 502.029 433.54 503.642 436.413 506.514C439.287 509.385 440.901 513.28 440.901 517.34C440.901 521.401 439.287 525.296 436.413 528.167C433.54 531.038 429.644 532.651 425.581 532.651Z" fill="#F2F2F2"/>
<path d="M606.172 603H0.828104C0.608477 603 0.397845 602.913 0.242545 602.758C0.0872458 602.602 0 602.392 0 602.172C0 601.953 0.0872458 601.742 0.242545 601.587C0.397845 601.432 0.608477 601.345 0.828104 601.345H606.172C606.391 601.345 606.602 601.432 606.757 601.587C606.913 601.742 607 601.953 607 602.172C607 602.392 606.913 602.602 606.757 602.758C606.602 602.913 606.391 603 606.172 603Z" fill="#3F3D56"/>
</g>
<defs>
<clipPath id="clip0_4_35">
<rect width="607" height="603" fill="white"/>
</clipPath>
</defs>
</svg>
